#N canvas 74 42 1828 608 10;
#X declare -lib mrpeach;
#X obj 326 8 import mrpeach;
#X obj 116 47 udpreceive 10101;
#X obj 309 49 unpackOSC;
#N canvas 757 531 584 408 voice 0;
#X obj 192 211 osc~;
#X obj 192 180 line~;
#X msg 193 150 \$1 10;
#X obj 192 289 *~ 0.1;
#X obj 187 374 dac~;
#X obj 197 119 routeOSC /freq;
#X obj 300 118 routeOSC /shape;
#X obj 194 252 *~;
#X obj 254 260 tgl 15 0 empty empty empty 17 7 0 10 -262144 -1 -1 1
1;
#X obj 254 226 select tri;
#X obj 310 196 symbol;
#X obj 324 259 tgl 15 0 empty empty empty 17 7 0 10 -262144 -1 -1 0
1;
#X obj 407 259 tgl 15 0 empty empty empty 17 7 0 10 -262144 -1 -1 1
1;
#X obj 256 305 line~;
#X msg 252 280 \$1 100;
#X obj 324 225 select sine;
#X obj 407 225 select square;
#X obj 331 304 line~;
#X msg 327 279 \$1 100;
#X obj 410 306 line~;
#X msg 406 281 \$1 100;
#X obj 127 251 *~;
#X obj 79 251 *~;
#X obj 129 192 phasor~;
#X obj 121 221 expr~ if($v1>0 \, 1 \, 0);
#X obj 74 194 osc~;
#X obj 24 232 expr~ $v1*$v1;
#X obj 193 85 routeOSC /bass;
#X obj 199 24 receive osc;
#X obj 430 124 routeOSC /pans;
#X obj 430 165 expr (1-$f1);
#X msg 425 196 \$1 10;
#X obj 190 349 *~;
#X obj 224 320 line~;
#X msg 477 196 \$1 10;
#X obj 218 349 *~;
#X obj 288 324 line~;
#X connect 0 0 7 0;
#X connect 1 0 0 0;
#X connect 1 0 23 0;
#X connect 1 0 25 0;
#X connect 2 0 1 0;
#X connect 3 0 32 0;
#X connect 3 0 35 0;
#X connect 5 0 2 0;
#X connect 6 0 10 0;
#X connect 7 0 3 0;
#X connect 8 0 14 0;
#X connect 9 0 8 0;
#X connect 10 0 9 0;
#X connect 10 0 15 0;
#X connect 10 0 16 0;
#X connect 11 0 18 0;
#X connect 12 0 20 0;
#X connect 13 0 22 1;
#X connect 14 0 13 0;
#X connect 15 0 11 0;
#X connect 16 0 12 0;
#X connect 17 0 7 1;
#X connect 18 0 17 0;
#X connect 19 0 21 1;
#X connect 20 0 19 0;
#X connect 21 0 3 0;
#X connect 22 0 3 0;
#X connect 23 0 24 0;
#X connect 24 0 21 0;
#X connect 25 0 26 0;
#X connect 26 0 22 0;
#X connect 27 0 5 0;
#X connect 27 0 6 0;
#X connect 27 0 29 0;
#X connect 28 0 27 0;
#X connect 29 0 30 0;
#X connect 29 0 34 0;
#X connect 30 0 31 0;
#X connect 31 0 33 0;
#X connect 32 0 4 0;
#X connect 33 0 32 1;
#X connect 34 0 36 0;
#X connect 35 0 4 1;
#X connect 36 0 35 1;
#X restore 112 170 pd voice;
#X obj 299 94 send osc;
#N canvas 757 531 584 408 voice 0;
#X obj 192 211 osc~;
#X obj 192 180 line~;
#X msg 193 150 \$1 10;
#X obj 192 289 *~ 0.1;
#X obj 197 119 routeOSC /freq;
#X obj 300 118 routeOSC /shape;
#X obj 194 252 *~;
#X obj 254 260 tgl 15 0 empty empty empty 17 7 0 10 -262144 -1 -1 0
1;
#X obj 254 226 select tri;
#X obj 310 196 symbol;
#X obj 324 259 tgl 15 0 empty empty empty 17 7 0 10 -262144 -1 -1 1
1;
#X obj 407 259 tgl 15 0 empty empty empty 17 7 0 10 -262144 -1 -1 1
1;
#X obj 256 305 line~;
#X msg 252 280 \$1 100;
#X obj 324 225 select sine;
#X obj 407 225 select square;
#X obj 331 304 line~;
#X msg 327 279 \$1 100;
#X obj 410 306 line~;
#X msg 406 281 \$1 100;
#X obj 127 251 *~;
#X obj 79 251 *~;
#X obj 74 194 osc~;
#X obj 199 24 receive osc;
#X obj 193 85 routeOSC /mid;
#X obj 197 384 dac~;
#X obj 440 134 routeOSC /pans;
#X obj 440 175 expr (1-$f1);
#X msg 435 206 \$1 10;
#X obj 200 359 *~;
#X obj 234 330 line~;
#X msg 487 206 \$1 10;
#X obj 228 359 *~;
#X obj 298 334 line~;
#X obj 24 232 expr~ $v1*$v1*$v1;
#X obj 129 192 osc~;
#X obj 121 221 expr~ $v1*int($v1*100)/100;
#X connect 0 0 6 0;
#X connect 1 0 0 0;
#X connect 1 0 22 0;
#X connect 1 0 35 0;
#X connect 2 0 1 0;
#X connect 3 0 29 0;
#X connect 3 0 32 0;
#X connect 4 0 2 0;
#X connect 5 0 9 0;
#X connect 6 0 3 0;
#X connect 7 0 13 0;
#X connect 8 0 7 0;
#X connect 9 0 8 0;
#X connect 9 0 14 0;
#X connect 9 0 15 0;
#X connect 10 0 17 0;
#X connect 11 0 19 0;
#X connect 12 0 21 1;
#X connect 13 0 12 0;
#X connect 14 0 10 0;
#X connect 15 0 11 0;
#X connect 16 0 6 1;
#X connect 17 0 16 0;
#X connect 18 0 20 1;
#X connect 19 0 18 0;
#X connect 20 0 3 0;
#X connect 21 0 3 0;
#X connect 22 0 34 0;
#X connect 23 0 24 0;
#X connect 24 0 4 0;
#X connect 24 0 5 0;
#X connect 24 0 26 0;
#X connect 26 0 27 0;
#X connect 26 0 31 0;
#X connect 27 0 28 0;
#X connect 28 0 30 0;
#X connect 29 0 25 0;
#X connect 30 0 29 1;
#X connect 31 0 33 0;
#X connect 32 0 25 1;
#X connect 33 0 32 1;
#X connect 34 0 21 0;
#X connect 35 0 36 0;
#X connect 36 0 20 0;
#X restore 114 200 pd voice;
#N canvas 757 531 763 455 voice 0;
#X obj 192 211 osc~;
#X obj 192 180 line~;
#X msg 193 150 \$1 10;
#X obj 186 352 *~ 0.1;
#X obj 197 119 routeOSC /freq;
#X obj 300 118 routeOSC /shape;
#X obj 193 295 *~;
#X obj 254 260 tgl 15 0 empty empty empty 17 7 0 10 -262144 -1 -1 0
1;
#X obj 254 226 select tri;
#X obj 310 196 symbol;
#X obj 324 259 tgl 15 0 empty empty empty 17 7 0 10 -262144 -1 -1 1
1;
#X obj 407 259 tgl 15 0 empty empty empty 17 7 0 10 -262144 -1 -1 0
1;
#X obj 256 305 line~;
#X msg 252 280 \$1 100;
#X obj 324 225 select sine;
#X obj 407 225 select square;
#X obj 331 304 line~;
#X msg 327 279 \$1 100;
#X obj 410 306 line~;
#X msg 406 281 \$1 100;
#X obj 3 308 *~;
#X obj -45 308 *~;
#X obj 5 249 phasor~;
#X obj -3 278 expr~ if($v1>0 \, 1 \, 0);
#X obj -50 251 osc~;
#X obj -100 289 expr~ $v1*$v1;
#X obj 199 24 receive osc;
#X obj 193 85 routeOSC /mid2;
#X obj 217 404 dac~;
#X obj 460 154 routeOSC /pans;
#X obj 460 195 expr (1-$f1);
#X msg 455 226 \$1 10;
#X obj 220 379 *~;
#X obj 254 350 line~;
#X msg 507 226 \$1 10;
#X obj 248 379 *~;
#X obj 318 354 line~;
#X obj 67 242 expr~ min(max(1 \, 10*$v1*$v1*$v1) \, -1);
#X connect 0 0 37 0;
#X connect 1 0 0 0;
#X connect 1 0 22 0;
#X connect 1 0 24 0;
#X connect 2 0 1 0;
#X connect 3 0 32 0;
#X connect 3 0 35 0;
#X connect 4 0 2 0;
#X connect 5 0 9 0;
#X connect 6 0 3 0;
#X connect 7 0 13 0;
#X connect 8 0 7 0;
#X connect 9 0 8 0;
#X connect 9 0 14 0;
#X connect 9 0 15 0;
#X connect 10 0 17 0;
#X connect 11 0 19 0;
#X connect 12 0 21 1;
#X connect 13 0 12 0;
#X connect 14 0 10 0;
#X connect 15 0 11 0;
#X connect 16 0 6 1;
#X connect 17 0 16 0;
#X connect 18 0 20 1;
#X connect 19 0 18 0;
#X connect 20 0 3 0;
#X connect 21 0 3 0;
#X connect 22 0 23 0;
#X connect 23 0 20 0;
#X connect 24 0 25 0;
#X connect 25 0 21 0;
#X connect 26 0 27 0;
#X connect 27 0 4 0;
#X connect 27 0 5 0;
#X connect 27 0 29 0;
#X connect 29 0 30 0;
#X connect 29 0 34 0;
#X connect 30 0 31 0;
#X connect 31 0 33 0;
#X connect 32 0 28 0;
#X connect 33 0 32 1;
#X connect 34 0 36 0;
#X connect 35 0 28 1;
#X connect 36 0 35 1;
#X connect 37 0 6 0;
#X restore 115 229 pd voice;
#N canvas 757 531 584 408 voice 0;
#X obj 192 211 osc~;
#X obj 192 180 line~;
#X msg 193 150 \$1 10;
#X obj 192 289 *~ 0.1;
#X obj 197 119 routeOSC /freq;
#X obj 300 118 routeOSC /shape;
#X obj 194 252 *~;
#X obj 254 260 tgl 15 0 empty empty empty 17 7 0 10 -262144 -1 -1 1
1;
#X obj 254 226 select tri;
#X obj 310 196 symbol;
#X obj 324 259 tgl 15 0 empty empty empty 17 7 0 10 -262144 -1 -1 1
1;
#X obj 407 259 tgl 15 0 empty empty empty 17 7 0 10 -262144 -1 -1 0
1;
#X obj 256 305 line~;
#X msg 252 280 \$1 100;
#X obj 324 225 select sine;
#X obj 407 225 select square;
#X obj 331 304 line~;
#X msg 327 279 \$1 100;
#X obj 410 306 line~;
#X msg 406 281 \$1 100;
#X obj 127 251 *~;
#X obj 79 251 *~;
#X obj 129 192 phasor~;
#X obj 74 194 osc~;
#X obj 24 232 expr~ $v1*$v1;
#X obj 199 24 receive osc;
#X obj 193 85 routeOSC /mid3;
#X obj 187 377 dac~;
#X obj 430 127 routeOSC /pans;
#X obj 430 168 expr (1-$f1);
#X msg 425 199 \$1 10;
#X obj 190 352 *~;
#X obj 224 323 line~;
#X msg 477 199 \$1 10;
#X obj 218 352 *~;
#X obj 288 327 line~;
#X obj 121 221 expr~ max(sin($v1) \, cos($v1*$v1));
#X connect 0 0 6 0;
#X connect 1 0 0 0;
#X connect 1 0 22 0;
#X connect 1 0 23 0;
#X connect 2 0 1 0;
#X connect 3 0 31 0;
#X connect 3 0 34 0;
#X connect 4 0 2 0;
#X connect 5 0 9 0;
#X connect 6 0 3 0;
#X connect 7 0 13 0;
#X connect 8 0 7 0;
#X connect 9 0 8 0;
#X connect 9 0 14 0;
#X connect 9 0 15 0;
#X connect 10 0 17 0;
#X connect 11 0 19 0;
#X connect 12 0 21 1;
#X connect 13 0 12 0;
#X connect 14 0 10 0;
#X connect 15 0 11 0;
#X connect 16 0 6 1;
#X connect 17 0 16 0;
#X connect 18 0 20 1;
#X connect 19 0 18 0;
#X connect 20 0 3 0;
#X connect 21 0 3 0;
#X connect 22 0 36 0;
#X connect 23 0 24 0;
#X connect 24 0 21 0;
#X connect 25 0 26 0;
#X connect 26 0 4 0;
#X connect 26 0 5 0;
#X connect 26 0 28 0;
#X connect 28 0 29 0;
#X connect 28 0 33 0;
#X connect 29 0 30 0;
#X connect 30 0 32 0;
#X connect 31 0 27 0;
#X connect 32 0 31 1;
#X connect 33 0 35 0;
#X connect 34 0 27 1;
#X connect 35 0 34 1;
#X connect 36 0 20 0;
#X restore 179 203 pd voice;
#X obj 428 117 print;
#N canvas 757 531 584 408 voice 0;
#X obj 192 211 osc~;
#X obj 192 180 line~;
#X msg 193 150 \$1 10;
#X obj 192 289 *~ 0.1;
#X obj 187 374 dac~;
#X obj 197 119 routeOSC /freq;
#X obj 300 118 routeOSC /shape;
#X obj 194 252 *~;
#X obj 254 260 tgl 15 0 empty empty empty 17 7 0 10 -262144 -1 -1 1
1;
#X obj 254 226 select tri;
#X obj 310 196 symbol;
#X obj 324 259 tgl 15 0 empty empty empty 17 7 0 10 -262144 -1 -1 1
1;
#X obj 407 259 tgl 15 0 empty empty empty 17 7 0 10 -262144 -1 -1 1
1;
#X obj 256 305 line~;
#X msg 252 280 \$1 100;
#X obj 324 225 select sine;
#X obj 407 225 select square;
#X obj 331 304 line~;
#X msg 327 279 \$1 100;
#X obj 410 306 line~;
#X msg 406 281 \$1 100;
#X obj 127 251 *~;
#X obj 79 251 *~;
#X obj 129 192 phasor~;
#X obj 121 221 expr~ if($v1>0 \, 1 \, 0);
#X obj 74 194 osc~;
#X obj 24 232 expr~ $v1*$v1;
#X obj 199 24 receive osc;
#X obj 430 124 routeOSC /pans;
#X obj 430 165 expr (1-$f1);
#X msg 425 196 \$1 10;
#X obj 190 349 *~;
#X obj 224 320 line~;
#X msg 477 196 \$1 10;
#X obj 218 349 *~;
#X obj 288 324 line~;
#X obj 193 85 routeOSC /bass2;
#X connect 0 0 7 0;
#X connect 1 0 0 0;
#X connect 1 0 23 0;
#X connect 1 0 25 0;
#X connect 2 0 1 0;
#X connect 3 0 31 0;
#X connect 3 0 34 0;
#X connect 5 0 2 0;
#X connect 6 0 10 0;
#X connect 7 0 3 0;
#X connect 8 0 14 0;
#X connect 9 0 8 0;
#X connect 10 0 9 0;
#X connect 10 0 15 0;
#X connect 10 0 16 0;
#X connect 11 0 18 0;
#X connect 12 0 20 0;
#X connect 13 0 22 1;
#X connect 14 0 13 0;
#X connect 15 0 11 0;
#X connect 16 0 12 0;
#X connect 17 0 7 1;
#X connect 18 0 17 0;
#X connect 19 0 21 1;
#X connect 20 0 19 0;
#X connect 21 0 3 0;
#X connect 22 0 3 0;
#X connect 23 0 24 0;
#X connect 24 0 21 0;
#X connect 25 0 26 0;
#X connect 26 0 22 0;
#X connect 27 0 36 0;
#X connect 28 0 29 0;
#X connect 28 0 33 0;
#X connect 29 0 30 0;
#X connect 30 0 32 0;
#X connect 31 0 4 0;
#X connect 32 0 31 1;
#X connect 33 0 35 0;
#X connect 34 0 4 1;
#X connect 35 0 34 1;
#X connect 36 0 5 0;
#X connect 36 0 6 0;
#X connect 36 0 28 0;
#X restore 181 171 pd voice;
#X connect 1 0 2 0;
#X connect 2 0 4 0;
#X connect 2 0 8 0;
