#N canvas 0 23 1920 961 10;
#X declare -lib mrpeach;
#X obj 569 44 import mrpeach;
#X obj 561 64 udpreceive 10101;
#X obj 552 85 unpackOSC;
#X obj 548 108 send osc;
#X obj 56 470 soundfiler;
#N canvas 0 22 450 278 (subpatch) 0;
#X array hbd-array-l 3.35433e+06 float 2;
#X coords 0 1 3.35433e+06 -1 200 140 1;
#X restore 60 536 graph;
#N canvas 0 22 450 278 (subpatch) 0;
#X array hbd-array-r 3.35433e+06 float 2;
#X coords 0 1 3.35433e+06 -1 200 140 1;
#X restore 305 536 graph;
#X msg 55 442 read -resize hbd.aiff hbd-array-l hbd-array-r;
#X obj 63 500 send totalsamples;
#X obj 57 416 loadbang;
#X obj 77 138 receive osc;
#X obj 77 166 routeOSC /mid;
#X obj 168 166 routeOSC /mid2;
#X obj 265 165 routeOSC /mid3;
#X obj 171 140 receive osc;
#X obj 263 140 receive osc;
#X obj 70 275 receive osc;
#X obj 177 279 receive osc;
#X obj 70 303 routeOSC /bass;
#X obj 177 307 routeOSC /bass2;
#X obj 171 336 septSalonVoice;
#X obj 617 416 send crazyFreqout;
#X obj 621 312 hsl 128 15 0 127 0 0 empty empty empty -2 -8 0 10 -262144
-1 -1 0 1;
#X obj 134 110 tgl 15 0 empty empty empty 17 7 0 10 -262144 -1 -1 0
1;
#X obj 239 108 tgl 15 0 empty empty empty 17 7 0 10 -262144 -1 -1 1
1;
#X obj 348 116 tgl 15 0 empty empty empty 17 7 0 10 -262144 -1 -1 0
1;
#X obj 145 272 tgl 15 0 empty empty empty 17 7 0 10 -262144 -1 -1 1
1;
#X obj 260 275 tgl 15 0 empty empty empty 17 7 0 10 -262144 -1 -1 1
1;
#X obj 421 218 key;
#X floatatom 435 261 5 0 0 0 - - -;
#X obj 137 50 key;
#X obj 134 81 sel 97;
#X obj 241 48 key;
#X obj 238 79 sel 115;
#X obj 348 45 key;
#X obj 345 76 sel 100;
#X obj 627 499 send CeliaMain;
#X obj 628 463 hsl 128 15 0 127 0 0 empty empty empty -2 -8 0 10 -262144
-1 -1 0 1;
#N canvas 841 179 417 537 finalAmp 0;
#X obj 44 456 dac~;
#X obj 193 348 catch~ left;
#X obj 285 348 catch~ right;
#X obj 211 302 writesf~ 2;
#X msg 232 235 open sample.aiff;
#X msg 254 265 start;
#X msg 303 269 stop;
#X obj 67 164 tabplay~ hbd-array-l;
#X obj 218 171 tabplay~ hbd-array-r;
#X obj 59 244 hsl 128 15 0 127 0 0 empty empty empty -2 -8 0 10 -262144
-1 -1 0 1;
#X obj 59 279 / 128;
#X msg 55 311 \$1 100;
#X obj 56 346 line~;
#X obj 81 376 expr~ 1-$v1;
#X obj 71 418 *~;
#X obj 105 417 *~;
#X obj 9 419 *~;
#X obj 43 418 *~;
#X obj 74 99 bng 15 250 50 0 empty empty empty 17 7 0 10 -262144 -1
-1;
#X obj 87 188 *~ 0.1;
#X obj 159 209 *~ 0.1;
#X obj 85 59 loadbang;
#X obj 18 209 receive CeliaMain;
#X obj 85 18 r init;
#X connect 1 0 14 0;
#X connect 2 0 15 0;
#X connect 4 0 3 0;
#X connect 5 0 3 0;
#X connect 6 0 3 0;
#X connect 7 0 19 0;
#X connect 7 1 18 0;
#X connect 8 0 20 0;
#X connect 9 0 10 0;
#X connect 10 0 11 0;
#X connect 11 0 12 0;
#X connect 12 0 13 0;
#X connect 12 0 16 1;
#X connect 12 0 17 1;
#X connect 13 0 14 1;
#X connect 13 0 15 1;
#X connect 14 0 0 0;
#X connect 14 0 3 0;
#X connect 15 0 0 1;
#X connect 15 0 3 1;
#X connect 16 0 0 0;
#X connect 16 0 3 0;
#X connect 17 0 0 1;
#X connect 17 0 3 1;
#X connect 18 0 7 0;
#X connect 18 0 8 0;
#X connect 19 0 16 0;
#X connect 20 0 17 0;
#X connect 21 0 18 0;
#X connect 22 0 9 0;
#X connect 23 0 21 0;
#X restore 877 356 pd finalAmp;
#X obj 752 158 s init;
#X obj 758 78 key;
#X obj 755 109 sel 114;
#X obj 56 389 r init;
#X obj 145 212 key;
#X obj 256 216 key;
#X obj 142 243 sel 102;
#X obj 253 247 sel 103;
#X obj 71 195 septSalonVoice;
#X obj 169 191 septSalonVoice;
#X obj 268 191 septSalonVoice;
#X obj 64 332 septSalonVoice;
#X obj 621 347 / 128;
#X connect 1 0 2 0;
#X connect 2 0 3 0;
#X connect 4 0 8 0;
#X connect 7 0 4 0;
#X connect 9 0 7 0;
#X connect 10 0 11 0;
#X connect 11 0 47 0;
#X connect 12 0 48 0;
#X connect 13 0 49 0;
#X connect 14 0 12 0;
#X connect 15 0 13 0;
#X connect 16 0 18 0;
#X connect 17 0 19 0;
#X connect 18 0 50 0;
#X connect 19 0 20 0;
#X connect 22 0 51 0;
#X connect 23 0 47 1;
#X connect 24 0 48 1;
#X connect 25 0 49 1;
#X connect 26 0 50 1;
#X connect 27 0 20 1;
#X connect 28 0 29 0;
#X connect 30 0 31 0;
#X connect 31 0 23 0;
#X connect 32 0 33 0;
#X connect 33 0 24 0;
#X connect 34 0 35 0;
#X connect 35 0 25 0;
#X connect 37 0 36 0;
#X connect 40 0 41 0;
#X connect 41 0 39 0;
#X connect 42 0 9 0;
#X connect 43 0 45 0;
#X connect 44 0 46 0;
#X connect 45 0 26 0;
#X connect 46 0 27 0;
#X connect 51 0 21 0;
