#N canvas 113 23 704 911 10;
#X obj 202 190 line~;
#X msg 203 160 \$1 10;
#X obj 159 356 *~ 0.1;
#X obj 207 129 routeOSC /freq;
#X obj 310 128 routeOSC /shape;
#X obj 209 297 *~;
#X obj 269 319 tgl 15 0 empty empty empty 17 7 0 10 -262144 -1 -1 1
1;
#X obj 264 236 select tri;
#X obj 320 206 symbol;
#X obj 339 318 tgl 15 0 empty empty empty 17 7 0 10 -262144 -1 -1 0
1;
#X obj 422 318 tgl 15 0 empty empty empty 17 7 0 10 -262144 -1 -1 1
1;
#X obj 271 364 line~;
#X msg 267 339 \$1 100;
#X obj 334 235 select sine;
#X obj 417 235 select square;
#X obj 346 363 line~;
#X msg 342 338 \$1 100;
#X obj 425 365 line~;
#X msg 421 340 \$1 100;
#X obj 137 261 *~;
#X obj 89 261 *~;
#X obj 450 144 routeOSC /pans;
#X obj 450 185 expr (1-$f1);
#X msg 445 216 \$1 10;
#X obj 215 418 *~;
#X obj 249 389 line~;
#X msg 497 216 \$1 10;
#X obj 243 418 *~;
#X obj 313 393 line~;
#X obj 135 171 phasor~;
#X obj 135 235 bp~ 1000 2;
#X obj 133 206 *~;
#X obj 124 118 expr~ abs($v1);
#X obj 47 504 tabread~ hbd-array-l;
#X obj 187 505 tabread~ hbd-array-r;
#X obj 108 400 *~ 1000;
#X obj 217 355 *~ 0.1;
#X text 95 705 height of the phasor is the number of samples within
a cycle of the frequency;
#X floatatom 515 355 5 0 0 0 - - -;
#X obj 139 319 expr 44100/(1000/$f1);
#X obj 55 213 phasor~;
#X obj 209 208 phasor~;
#X obj 493 260 r totalsamples;
#X obj 492 303 expr $f2*($f1%1000)/1000;
#X obj 111 587 *~ 1;
#X obj 109 563 phasor~ 0.01;
#X obj 107 622 +~ 0;
#X obj 107 657 expr~ $v1%$f2;
#X obj 118 435 +~;
#X obj 214 73 inlet;
#X obj 503 446 samplerate~;
#X obj 486 492 /;
#X floatatom 506 564 5 0 0 0 - - -;
#X floatatom 597 489 5 0 0 0 - - -;
#X obj 490 413 t f b;
#X obj 212 443 throw~ left;
#X obj 291 438 throw~ right;
#X obj 575 212 expr ($f1%10)+1;
#X obj 481 523 expr 1/($f2*$f1);
#X obj 397 619 receive crazyFreqout;
#X obj 370 659 *;
#X floatatom 368 688 5 0 0 0 - - -;
#X floatatom 461 660 5 0 0 0 - - -;
#X obj 471 53 inlet;
#X msg 474 82 \$1 100;
#X obj 475 109 line~;
#X obj 252 473 *~;
#X obj 280 473 *~;
#X connect 0 0 29 0;
#X connect 0 0 40 0;
#X connect 0 0 41 0;
#X connect 1 0 0 0;
#X connect 2 0 24 0;
#X connect 3 0 1 0;
#X connect 3 0 38 0;
#X connect 3 0 39 0;
#X connect 3 0 43 0;
#X connect 3 0 57 0;
#X connect 4 0 8 0;
#X connect 5 0 35 0;
#X connect 6 0 12 0;
#X connect 7 0 6 0;
#X connect 8 0 7 0;
#X connect 8 0 13 0;
#X connect 8 0 14 0;
#X connect 9 0 16 0;
#X connect 10 0 18 0;
#X connect 11 0 20 1;
#X connect 12 0 11 0;
#X connect 13 0 9 0;
#X connect 14 0 10 0;
#X connect 15 0 5 1;
#X connect 16 0 15 0;
#X connect 17 0 19 1;
#X connect 18 0 17 0;
#X connect 19 0 35 0;
#X connect 20 0 35 0;
#X connect 21 0 22 0;
#X connect 21 0 26 0;
#X connect 22 0 23 0;
#X connect 23 0 25 0;
#X connect 24 0 66 0;
#X connect 25 0 24 1;
#X connect 26 0 28 0;
#X connect 27 0 67 0;
#X connect 28 0 27 1;
#X connect 29 0 32 0;
#X connect 30 0 19 0;
#X connect 31 0 30 0;
#X connect 32 0 31 1;
#X connect 33 0 2 0;
#X connect 34 0 36 0;
#X connect 35 0 48 0;
#X connect 36 0 27 0;
#X connect 39 0 35 1;
#X connect 40 0 20 0;
#X connect 40 0 31 0;
#X connect 41 0 5 0;
#X connect 42 0 43 1;
#X connect 42 0 44 1;
#X connect 42 0 54 0;
#X connect 43 0 46 1;
#X connect 43 0 47 1;
#X connect 44 0 46 0;
#X connect 45 0 44 0;
#X connect 46 0 47 0;
#X connect 47 0 48 1;
#X connect 48 0 33 0;
#X connect 48 0 34 0;
#X connect 49 0 3 0;
#X connect 49 0 4 0;
#X connect 49 0 21 0;
#X connect 50 0 51 1;
#X connect 51 0 53 0;
#X connect 51 0 58 0;
#X connect 54 0 51 0;
#X connect 54 1 50 0;
#X connect 57 0 58 1;
#X connect 58 0 52 0;
#X connect 58 0 60 1;
#X connect 59 0 62 0;
#X connect 59 0 60 0;
#X connect 60 0 45 0;
#X connect 60 0 61 0;
#X connect 63 0 64 0;
#X connect 64 0 65 0;
#X connect 65 0 66 1;
#X connect 65 0 67 1;
#X connect 66 0 55 0;
#X connect 67 0 56 0;
